<svg width="16" height="14" viewBox="0 0 16 14" fill="none" xmlns="http://www.w3.org/2000/svg">
<path d="M8.41309 0C8.07748 0 7.74187 0.16135 7.56818 0.486785L5.6458 4.10759L1.34473 4.68736C0.573427 4.79128 0.264315 5.6746 0.82366 6.18053L3.93538 8.99733L3.1994 12.9764C3.06693 13.6902 3.87651 14.2344 4.56538 13.898L8.41309 12.022V0Z" fill="url(#paint0_linear_706_12069)"/>
<path d="M8.04758 0C8.36962 0 8.69166 0.161323 8.85833 0.486703L10.703 4.1069L14.8302 4.68657C15.5703 4.79047 15.867 5.67365 15.3302 6.17949L12.3443 8.99581L13.0505 12.9742C13.1776 13.6878 12.4008 14.232 11.7397 13.8957L8.04758 12.0199V0Z" fill="url(#paint1_linear_706_12069)"/>
<defs>
<linearGradient id="paint0_linear_706_12069" x1="4.47559" y1="0" x2="4.47559" y2="14" gradientUnits="userSpaceOnUse">
<stop stop-color="#FFDF40"/>
<stop offset="0.401042" stop-color="#F9CD2A"/>
<stop offset="1" stop-color="#F9A702"/>
</linearGradient>
<linearGradient id="paint1_linear_706_12069" x1="11.8259" y1="0" x2="11.8259" y2="13.9976" gradientUnits="userSpaceOnUse">
<stop stop-color="#FFDF40"/>
<stop offset="0.401042" stop-color="#F9CD2A"/>
<stop offset="1" stop-color="#F9A702"/>
</linearGradient>
</defs>
</svg>
